<?xml version="1.0" standalone="no"?>
<!DOCTYPE svg PUBLIC "-//W3C//DTD SVG 20010904//EN"
 "http://www.w3.org/TR/2001/REC-SVG-20010904/DTD/svg10.dtd">
<svg version="1.0" xmlns="http://www.w3.org/2000/svg"
 width="1080.000000pt" height="390.000000pt" viewBox="0 0 1080.000000 390.000000"
 preserveAspectRatio="xMidYMid meet">

<g transform="translate(0.000000,390.000000) scale(0.100000,-0.100000)"
fill="#000000" stroke="none">
<path d="M2670 3359 c-106 -8 -185 -24 -375 -74 -531 -139 -1073 -435 -1469
-800 -163 -151 -416 -412 -498 -514 -116 -145 -169 -270 -170 -402 -1 -141 58
-248 167 -304 59 -30 59 -30 229 -30 148 1 189 4 306 29 229 48 355 94 386
141 17 27 13 51 -16 88 l-20 25 -142 -35 c-304 -74 -367 -84 -494 -85 -143 0
-194 13 -234 59 -25 29 -30 42 -30 89 0 138 151 365 426 638 493 491 1151 861
1744 982 121 25 157 28 340 28 222 0 290 -10 400 -60 127 -58 169 -146 136
-287 -34 -147 -132 -294 -320 -483 -145 -145 -183 -177 -541 -451 -308 -235
-551 -411 -614 -442 -65 -32 -111 -46 -111 -32 0 57 273 1003 370 1281 27 80
50 155 50 167 0 26 -44 63 -76 63 -78 0 -139 -163 -374 -1000 -143 -510 -172
-623 -157 -632 17 -11 60 -10 162 6 186 29 308 72 395 140 30 24 125 92 210
151 462 323 842 668 1014 918 188 275 206 518 49 656 -96 85 -281 156 -446
171 -115 11 -161 10 -297 -1z"/>
<path d="M6143 3056 c-51 -13 -99 -29 -108 -36 -43 -36 3 -130 64 -130 79 0
256 52 271 80 17 31 11 65 -13 88 -31 29 -92 28 -214 -2z"/>
<path d="M9544 3050 c-35 -14 -100 -96 -123 -156 -34 -89 -45 -180 -31 -247 9
-46 21 -67 61 -111 l49 -54 -100 -88 c-171 -152 -338 -253 -431 -262 -91 -9
-120 33 -127 182 -3 55 1 144 8 199 12 94 11 100 -7 125 -25 34 -68 50 -91 36
-9 -6 -37 -44 -61 -85 -24 -41 -66 -112 -94 -159 -172 -289 -400 -499 -500
-461 -40 15 -67 78 -67 153 1 74 22 140 103 313 75 161 76 167 38 205 -24 25
-38 31 -63 28 -29 -3 -37 -10 -64 -61 -85 -160 -281 -260 -447 -227 -101 20
-157 54 -296 183 -41 37 -87 75 -103 83 -26 14 -32 14 -54 0 -13 -9 -31 -28
-40 -42 -10 -14 -40 -37 -67 -51 -33 -16 -93 -69 -171 -148 -72 -72 -171 -160
-244 -214 -167 -124 -449 -311 -468 -311 -13 0 -14 9 -9 53 15 136 55 596 55
643 0 78 -46 112 -108 80 -37 -19 -40 -26 -52 -157 l-9 -104 -83 -78 c-151
-142 -241 -201 -355 -233 -134 -37 -201 23 -254 229 -49 193 -112 303 -185
327 -60 20 -182 8 -247 -24 -69 -33 -179 -134 -259 -237 -33 -44 -63 -78 -65
-75 -3 2 16 60 40 128 70 192 70 196 42 224 -16 16 -35 24 -59 24 -51 0 -49 2
-130 -183 -23 -53 -30 -60 -81 -83 -90 -41 -169 -51 -251 -31 -87 22 -155 63
-257 157 -124 114 -142 125 -178 110 -16 -7 -37 -26 -45 -41 -9 -18 -34 -38
-67 -53 -130 -62 -237 -250 -237 -417 0 -126 58 -250 147 -313 60 -42 97 -54
168 -55 108 -1 179 51 236 174 52 112 58 235 17 354 -10 30 -18 56 -18 58 0 1
28 -18 63 -43 135 -101 219 -122 349 -88 33 8 62 13 64 11 2 -2 -3 -39 -12
-83 -8 -43 -16 -110 -17 -147 -2 -61 1 -71 22 -88 55 -45 99 -13 270 196 189
232 302 338 378 355 78 18 110 -22 182 -223 56 -157 76 -193 134 -242 144
-124 381 -65 604 148 29 28 46 38 53 31 7 -7 3 -79 -12 -220 l-22 -209 -35
-34 c-20 -18 -70 -59 -112 -91 -42 -32 -124 -103 -183 -157 -59 -54 -123 -110
-142 -125 -39 -30 -20 -27 -399 -63 -352 -34 -702 -78 -985 -125 -391 -65
-834 -161 -900 -195 -45 -23 -53 -66 -19 -109 25 -32 5 -34 314 34 400 89 833
160 1295 214 278 33 542 57 548 51 3 -2 -11 -40 -31 -82 -59 -130 -72 -185
-71 -308 0 -94 4 -122 27 -190 51 -147 125 -225 213 -225 57 0 153 56 234 138
124 124 185 245 278 547 49 160 49 160 83 168 19 4 304 8 634 9 492 0 641 -3
830 -18 127 -10 275 -18 330 -19 97 0 99 0 114 27 20 34 6 78 -29 95 -30 14
-160 29 -365 44 -82 5 -452 13 -821 16 -370 3 -677 8 -682 12 -7 4 -4 50 9
141 10 74 19 138 19 142 0 4 75 58 168 119 204 137 315 215 407 289 39 31 75
59 81 63 8 4 17 -16 28 -59 45 -180 166 -297 307 -297 203 -1 341 270 263 516
-9 26 -14 52 -12 58 2 5 30 -11 63 -37 33 -26 84 -58 114 -72 80 -37 188 -27
343 33 15 6 16 3 9 -22 -18 -61 -22 -151 -11 -212 24 -135 110 -211 237 -211
108 0 182 50 405 268 l136 134 11 -52 c14 -63 31 -97 68 -132 60 -58 152 -77
259 -54 188 39 349 140 597 373 85 80 106 95 155 108 31 9 119 37 194 63 75
26 139 44 143 40 10 -10 -21 -116 -86 -296 -154 -425 -173 -645 -64 -741 58
-51 135 -51 181 0 17 19 16 21 -29 67 -95 97 -88 182 49 590 109 324 120 387
86 465 -27 61 -69 87 -143 87 -49 0 -71 -8 -172 -60 -64 -33 -121 -60 -126
-60 -6 0 -8 38 -4 99 6 94 4 103 -21 155 -33 68 -110 154 -153 172 -18 8 -34
14 -35 13 -2 0 -12 -4 -24 -9z m74 -222 c30 -30 3 -168 -33 -168 -40 0 -68
126 -36 163 16 20 52 22 69 5z m-5851 -498 c88 -174 79 -283 -31 -390 -95 -91
-216 4 -216 171 0 79 19 138 65 202 37 50 111 110 129 104 6 -2 30 -41 53 -87z
m3439 -2 c89 -177 79 -288 -37 -392 -36 -34 -46 -37 -78 -32 -44 7 -80 33
-105 76 -27 46 -34 172 -13 235 33 95 152 220 184 193 8 -6 30 -43 49 -80z
m-1271 -855 c-4 -37 -11 -77 -15 -89 -12 -30 -59 -44 -149 -44 -75 0 -75 0
-56 20 23 22 218 179 224 180 2 0 0 -30 -4 -67z m-67 -313 c7 -59 -131 -397
-212 -518 -65 -98 -108 -126 -161 -106 -67 26 -91 288 -40 439 22 66 72 159
97 182 25 22 88 31 213 29 99 -1 100 -1 103 -26z"/>
<path d="M8174 1290 c-87 -26 -105 -131 -28 -160 57 -22 154 41 154 99 0 49
-63 79 -126 61z"/>
</g>
</svg>
